# xmcd
#
# Track frame offsets:
#	182
#	13062
#	21107
#	31372
#	43842
#	56135
#	65270
#	75757
#	88637
#	101007
#	112042
#	122115
#	133797
#	153437
#
# Disc length: 2174 seconds
#
# Revision: 11
# Processed by: cddbd v1.5.2PL0 Copyright (c) Steve Scherf et al.
# Submitted via: audiograbber 1.82.01
#
DISCID=b4087c0e
DTITLE=Various Artist - The Best Of Country - CD 1 - Country Classics
DYEAR=2001
DGENRE=Country
TTITLE0=The Bellamy Brothers - Let Your Love Flow (Remake '91)
TTITLE1=John D. Loudermilk - The Language Of Love
TTITLE2=Chet Atkins - White Silver Sands
TTITLE3=Waylon Jennings - I'm A Ramblin' Man
TTITLE4=Dolly Parton - 9 To 5
TTITLE5=Charley Pride - Kiss An Angel Good Morning
TTITLE6=Jerry Reed - Amos Moses
TTITLE7=Jim Reeves - Distant Drums
TTITLE8=Hank Snow - I'm Movin' On
TTITLE9=Roger Miller - King Of The Road
TTITLE10=Jimmy Rodgers - Honeycomb
TTITLE11=Johnny Cash - Ring Of Fire
TTITLE12=Marty Robbins - El Paso
TTITLE13=Dave Dudley - Cowboy Boots
EXTD=\nYEAR: 2001  ID3G:   2
EXTT0=
EXTT1=
EXTT2=
EXTT3=
EXTT4=
EXTT5=
EXTT6=
EXTT7=
EXTT8=
EXTT9=
EXTT10=
EXTT11=
EXTT12=
EXTT13=
PLAYORDER=
